# xmcd CD database file
#
# Track frame offsets:
#	150
#	24545
#	44916
#	50771
#	80967
#	100075
#	116034
#	151764
#	181166
#	194227
#	221946
#	227949
#	254130
#
# Disc length: 3708 seconds
#
# Revision: 0
# Processed by: cddbd v1.4PL0 Copyright (c) Steve Scherf et al.
# Submitted via: CDex 1.50Beta6
#
DISCID=cd0e7a0d
DTITLE=Jazz Vespers 1st Unitarian Church of Salt Lake - The new era
DYEAR=2002
DGENRE=Jazz
TTITLE0=Cold Duck Time
TTITLE1=Straight, No Chaser
TTITLE2=Welcome to Jazz Vespers
TTITLE3=Body and Soul
TTITLE4=Over the Rainbow
TTITLE5=I Chop Some Parsley while Listening to Art Blakey's Three Blind Mice
TTITLE6=In a Mellow Tone
TTITLE7=Stardust
TTITLE8=Oher Side f the Wasatch
TTITLE9=Icarus
TTITLE10=Benediction
TTITLE11=Stand By Me
TTITLE12=Little Red Top
EXTD=YEAR: 2002
EXTT0=
EXTT1=
EXTT2=
EXTT3=
EXTT4=
EXTT5=
EXTT6=
EXTT7=
EXTT8=
EXTT9=
EXTT10=
EXTT11=
EXTT12=
PLAYORDER=
